<?xml version="1.0" encoding="UTF-8"?><svg id="a" xmlns="http://www.w3.org/2000/svg" viewBox="0 0 120 120"><defs><style>.b{fill:#b7e4fa;}.c{fill:#fff;}.d{fill:#3cbeee;}.e{fill:#31a6de;}.f{fill:#5b5d6e;}.g{fill:#05080a;}.h{fill:#fefefe;}</style></defs><circle class="c" cx="60" cy="60" r="60"/><g><path class="g" d="M7.21949,81.45611c.51397-.82218,1.25523-1.03627,2.20853-1.03057,4.84361,.02892,9.68759-.00431,14.53169-.0158,.86671-.02067,1.59049,.22638,1.99884,1.06523,.16899,1.52576-.4224,2.20182-1.9448,2.2058-1.95441,.0051-3.90919,.02165-5.86307-.01103-.58956-.00986-.86434,.10513-.80725,.76716,.06058,.70242,.0562,1.41745,.00106,2.12076-.05009,.63888,.18601,.79515,.79738,.78788,2.5943-.03085,5.18981-.04436,7.78343,.00766,.6981,.014,.95465-.24793,1.23948-.83776,1.87911-3.89128,4.99608-6.03217,9.3318-6.04279,4.34406-.01064,7.46566,2.13975,9.3432,6.02541,.32432,.67121,.6581,.84929,1.34365,.84749,7.78395-.02057,15.56797-.01306,23.35197-.01306,2.83054,0,5.6614-.02259,8.49141,.01645,.67636,.00933,.84937-.19652,.825-.84488-.05563-1.48017-.03739-2.96312-.04916-4.44493,.01192-2.21001,.02979-4.42002,.03305-6.63004,.00146-.99184,.40169-1.66656,1.41066-1.9,1.37245,.0868,1.83913,.57077,1.84637,1.95383,.00919,1.75268,.00015,3.50546,.00307,5.25818,.0033,1.98857,.0074,3.97715,.02193,5.96565,.00173,.23671-.12314,.56118,.3168,.60267,.33483,.03159,.49322-.13203,.59819-.41144,.07062-.18799,.14647-.37514,.23582-.55479,1.72106-3.46073,4.50818-5.51825,8.33917-5.87404,3.99993-.37147,7.17813,1.23618,9.55678,4.50467,.5536,.7607,.51549,2.03411,1.54102,2.29438,.91888,.23321,1.94255,.05352,2.91999,.05604,.06741,.00017,.1366-.00923,.20195,.00253,.58868,.10601,.73847-.15393,.72445-.71978-.03672-1.48217-.01234-2.96586-.01233-4.44894q.00001-1.89309-1.83962-1.9216c-2.82136-.04373-4.98983-2.1552-5.06273-4.95668-.02981-1.14525-.02488-2.29211-.00556-3.43773,.01983-1.17571,.55963-1.72834,1.72727-1.75026,1.34778-.0253,2.69743-.03995,4.0442,.00395,.7685,.02505,.89427-.19845,.52932-.8486-1.16104-2.06837-2.96352-2.87362-5.27713-2.86114-5.83099,.03144-11.66242,.03223-17.49324-.01235-.90872-.00696-1.13606,.24479-1.1008,1.1248,.06867,1.71385-.12673,1.92672-1.62888,2.43018-1.26016-.42929-1.59242-.87461-1.59274-2.18624-.00231-9.33052-.00838-18.66106,.01252-27.99153,.00163-.72721-.09635-1.02715-.95267-1.02595-20.17664,.02837-40.35333,.02769-60.52997,.00248-.86291-.00108-1.03231,.25808-1.02969,1.07266,.02984,9.26306,.01957,18.52625,.01821,27.7894-.00024,1.62047-.15988,1.84268-1.63667,2.33539-1.36336-.47033-1.61385-.81994-1.61401-2.28141-.00098-9.43733-.0014-18.87466,.00007-28.31199,.0004-2.58732,1.30697-3.88147,3.93007-3.88289,6.7746-.00365,13.54921-.00122,20.32381-.00122h1.16258c-.14315-.42856-.49-.41185-.72801-.50806-4.0096-1.62085-8.02278-3.23296-12.04226-4.82911-.62513-.24824-1.16809-.55213-1.32135-1.2532-.13748-.62889-.01887-1.20884,.5044-1.64812,.58437-.49058,1.21938-.47008,1.891-.20055,2.83052,1.13591,5.66129,2.27131,8.49935,3.38812,.32694,.12866,.63651,.39054,1.0522,.28146-.01127-.39531-.37408-.43871-.59192-.58856-1.80389-1.24093-3.6109-2.47833-5.17737-4.02141-2.33905-2.30413-3.02801-5.06713-1.92284-8.13266,1.11271-3.08644,3.48208-4.78704,6.72328-4.94619,3.25213-.15969,5.6652,1.40611,7.20741,4.27401,1.674,3.11297,2.84874,6.43425,4.02926,9.75188,.31124,.87468,.59862,1.75786,.96419,2.8353,.40212-1.14742,.7409-2.11981,1.08356-3.09083,1.20517-3.41516,2.3698-6.85535,4.23132-9.98328,1.62402-2.72886,4.1018-4.06919,7.27484-3.7442,3.38617,.34682,5.63322,2.26777,6.56172,5.54437,.81369,2.87143,.00459,5.38819-2.1032,7.46531-1.79869,1.77251-3.89053,3.17541-6.0087,4.56611,.47784,.25369,.85678-.03643,1.23551-.18721,2.73973-1.09075,5.47224-2.19961,8.20756-3.30147,.12428-.05006,.25364-.08742,.3803-.13162,1.06047-.37007,1.89241-.06333,2.2728,.83822,.37412,.88668-.00019,1.76942-1.02113,2.19672-1.73066,.72434-3.48447,1.39325-5.22657,2.0904-2.56949,1.02824-5.13725,2.06081-7.70083,3.28995,.33469,.01488,.66939,.04261,1.00409,.04274,6.7746,.00254,13.54982,.05369,20.32347-.02643,2.33787-.02765,4.18869,1.37488,3.99988,4.04551-.06561,.92804-.4098,2.16652,.14368,2.72979,.60492,.61562,1.85044,.17872,2.81428,.18743,2.99945,.02711,5.99937-.00278,8.99899,.0131,4.13319,.02188,6.95208,2.80153,7.05247,6.93473,.01309,.53879,.00175,1.07843-.00894,1.61747-.00677,.34124-.019,.78527-.30468,.92666-1.31506,.65083-.69552,1.64091-.48127,2.53211,.63495,2.64105,1.31357,5.27158,1.95932,7.91009,.14106,.57632,.35153,.92656,1.0259,1.10211,3.93771,1.02512,6.44588,4.30344,6.45093,8.33594,.00699,5.59498,.00296,11.18998,.0011,16.78497-.00052,1.53646-.50948,2.05094-2.05221,2.0619-1.38182,.00982-2.76419,.02184-4.14541-.00823-.50357-.01096-.67139,.1139-.72018,.6558-.49668,5.516-4.26558,9.2533-9.77581,9.74185-4.82391,.42771-9.82044-3.51209-10.60303-8.36067-.1055-.65362,.00841-1.60861-.37129-1.88443-.4703-.34167-1.3496-.13914-2.05223-.13939-11.05507-.00401-22.11017,.00641-33.16517-.02218-.79378-.00205-1.04428,.15888-1.14692,1.00004-.63996,5.24462-4.13595,8.7283-9.26835,9.35161-5.03014,.61088-10.11558-3.14079-11.03433-8.14461-.13089-.71286-.00358-1.76714-.41983-2.05938-.52381-.36777-1.48402-.12407-2.25598-.12632-2.02225-.00588-4.0447,.01415-6.06676-.00641-2.22644-.02264-3.57625-1.38764-3.59213-3.5952-.0063-.87628-.04047-1.75502,.01228-2.62815,.03641-.60281-.19662-.72017-.74221-.70516-1.31348,.03612-2.63118-.03846-3.94225,.02836-.95819,.04884-1.69636-.21295-2.21636-1.02865v-1.21358Zm84.3825-18.34422v.01004c2.59331,0,5.18674-.01321,7.77985,.00998,.5931,.0053,.76277-.12667,.59995-.74697-.79069-3.01223-1.56708-6.02894-2.28197-9.05977-.14744-.6251-.36084-.8015-.98476-.7975-4.24343,.02717-8.48722,.02907-12.73062-.00094-.6776-.00479-.92237,.1287-.91117,.86799,.04494,2.96313,.03913,5.92759,.00291,8.89096-.0082,.67097,.18603,.85085,.84724,.84128,2.55906-.03707,5.11897-.01507,7.67857-.01507Zm-48.14743,27.55527c-.01099-3.87179-3.13479-6.99505-6.98433-6.98312-3.76854,.01167-7.04037,3.31446-6.98475,7.05084,.05743,3.85772,3.18538,6.92537,7.05909,6.923,3.92047-.0024,6.9212-3.0382,6.90999-6.99071Zm50.05189,6.99093c3.36776,.16838,7.05519-2.41957,7.06392-6.96855,.0076-3.96398-2.89589-6.87973-6.98698-6.98422-3.80818-.09727-6.89494,3.06925-6.92304,6.90942-.02921,3.99142,2.9215,7.02716,6.8461,7.04336ZM45.7843,31.80257c-.63455-1.85474-1.16879-3.49942-1.75922-5.12366-1.02837-2.829-2.00793-5.68526-3.55971-8.28546-.97654-1.63633-2.48905-2.32791-4.36411-2.06275-1.6694,.23608-2.83104,1.21935-3.37501,2.80708-.58679,1.71275-.1643,3.23492,1.11006,4.52362,.75942,.76797,1.6117,1.42362,2.47699,2.06181,2.96009,2.18317,6.08713,4.10421,9.47099,6.07937Zm5.66821,.02929c3.73258-2.23379,7.26969-4.35776,10.52301-6.91153,.63185-.49599,1.25345-1.03263,1.76952-1.64365,2.0154-2.38623,.87776-6.01402-2.12317-6.87062-2.09576-.59822-4.07359,.38473-5.25609,2.68773-2.05304,3.99846-3.39928,8.27178-4.91326,12.73807Zm39.47139,17.46548c2.39198,0,4.78472-.03362,7.17552,.0195,.7651,.017,.8385-.2905,.71067-.88624-.33132-1.54399-1.78867-2.76432-3.40791-2.77223-3.84055-.01876-7.68132,.00306-11.52184-.01995-.57973-.00347-.87047,.08936-.81108,.75974,.06218,.70199,.05561,1.41697,.00138,2.12028-.0479,.62122,.14702,.80401,.77862,.79391,2.35769-.03769,4.71635-.01506,7.07464-.01501Zm16.61234,26.02566c0-.41864-.04531-.7614,.00902-1.08756,.13017-.78128-.19787-.98166-.93203-.91573-.73158,.06571-1.47417,.03136-2.21089,.00791-.38764-.01235-.54191,.11393-.51792,.51138,.02823,.46769-.00506,.93885,.01546,1.40731,.03438,.7848,.45044,1.29983,1.17262,1.58404,.74754,.29419,1.60902,.33509,2.25982,.07516,.51638-.20626,.08721-1.09375,.20392-1.5825ZM37.67554,30.86005l.06757-.06861c-.04095-.02277-.08001-.05258-.12391-.06436-.0146-.00392-.04161,.03839-.06295,.05956l.11929,.0734Z"/><path class="d" d="M81.24634,73.52908c-1.00897,.23344-1.40919,.90815-1.41066,1.9-.00326,2.21003-.02113,4.42003-.03305,6.63006-1.19327,.00043-2.38654,.00085-3.5798,.00127-.33933-1.29027-.73589-1.61481-2.01894-1.61519-7.79559-.00232-15.59118-.0017-23.38677-.00067-1.38096,.00018-1.70589,.24621-2.15298,1.60981-.85974,.13083-1.50772-.13878-2.13157-.79834-3.0361-3.20988-6.75505-4.63429-11.19818-4.27238-3.21959,.26224-5.93189,1.51053-8.25038,3.71105-.33206,.31516-.57872,.76884-1.12546,.78029-.40835-.83885-1.13212-1.0859-1.99884-1.06522,.58602-1.19168,.59887-2.38479,.00874-3.57936,2.88952-.0126,5.77888-.02184,8.66819-.03944,1.24563-.00759,2.10277-.72329,2.06326-1.70219-.04002-.99127-.767-1.54781-2.06809-1.5495-4.26822-.00557-8.53646,.00289-12.80467-.00549-1.37497-.0027-2.74987-.04085-4.1248-.06278,.00633-1.18205,.01265-2.36409,.01901-3.54613,1.47682-.4927,1.63646-.71491,1.6367-2.33538,.00135-9.26315,.01163-18.52634-.01821-27.7894-.00262-.81459,.16678-1.07374,1.02969-1.07266,20.17665,.0252,40.35334,.02588,60.52997-.00248,.85632-.0012,.9543,.29874,.95267,1.02595-.02089,9.33048-.01483,18.66101-.01252,27.99153,.00032,1.31163,.33258,1.75695,1.59295,2.18626-.07693,1.19938,.22707,2.41848-.18625,3.60042Zm-44.65772-15.73742c0,2.25817-.02281,4.51668,.00964,6.77439,.01619,1.12622,.67311,1.79698,1.63235,1.80387,.97229,.00698,1.58054-.64628,1.61382-1.78447,.0256-.87558,.00246-1.7525,.01056-2.62874,.00211-.22847-.07978-.49301,.12296-.67053,.38469-.33682,2.66702,.04017,2.96451,.48548,.84003,1.25742,1.65534,2.53177,2.51568,3.77502,.5755,.83164,1.55064,1.05233,2.28392,.58251,.81471-.52199,.99419-1.45572,.41639-2.3797-.55225-.88312-1.10331-1.7722-1.73021-2.60173-.47269-.62549-.53432-.97846,.14785-1.58138,1.76249-1.55771,2.31873-3.58959,1.70405-5.85884-.62514-2.30786-2.16165-3.74755-4.50661-4.2523-1.66289-.35793-3.35735-.10902-5.03685-.14829-1.55835-.03643-2.13889,.5584-2.14679,2.11463-.01078,2.12331-.00269,4.24671-.00127,6.37007Zm18.99769-8.49356c-1.04469,0-2.08941-.00473-3.13407,.00115-1.40556,.00792-1.96642,.54779-1.9688,1.93756-.00756,4.41469-.00716,8.82941,.00035,13.2441,.0022,1.29173,.53882,1.87876,1.80885,1.89721,2.15633,.03134,4.31346,.01436,6.47019,.00467,.43678-.00196,.87676-.04411,1.23413-.35544,.52998-.46168,.77687-1.04311,.55884-1.71501-.2567-.79109-.87639-1.17517-1.6967-1.18454-1.48259-.01695-2.96585-.02635-4.44806,.0016-.51324,.00968-.72457-.12191-.69228-.66984,.04354-.73883,.06114-1.48661-.00368-2.2223-.06312-.71636,.25344-.84134,.87011-.80766,.80638,.04402,1.6171,.01871,2.42577,.00851,1.15978-.01462,1.8214-.56692,1.85459-1.53014,.03473-1.00814-.66171-1.67859-1.82047-1.70978-.87556-.02356-1.75324-.02991-2.62808,.00445-.50184,.01971-.734-.0921-.69931-.65614,.04749-.77218,.05269-1.55231-.00095-2.32368-.04319-.62117,.23146-.70766,.76074-.69666,1.44846,.03011,2.89806,.02039,4.34702,.00679,1.10534-.01037,1.79154-.64123,1.79184-1.60886,.00029-.96341-.69349-1.60488-1.79491-1.62206-1.07813-.01682-2.15673-.00366-3.23512-.00393Zm6.99835,8.48277c0,2.22281-.01091,4.44569,.00404,6.6684,.00914,1.35876,.53609,1.91461,1.8762,1.93144,2.12143,.02663,4.2436,.02362,6.36511,.00124,1.16495-.0123,1.91747-.68465,1.91292-1.6271-.00452-.93662-.76585-1.60126-1.92614-1.62965-1.04342-.02553-2.08795-.00583-3.13199-.00589q-1.83997-.00009-1.83997-1.82897,0-1.77611,1.72646-1.85199c1.02508-.04505,1.71766-.68752,1.71907-1.59468,.00128-.82199-.7005-1.53546-1.61629-1.64532-.58936-.0707-1.41831,.27548-1.71248-.1719-.29713-.45187-.10158-1.22979-.11543-1.86501-.00734-.33663,.02533-.67612-.00714-1.00973-.04749-.48784,.14333-.63456,.62607-.625,1.41394,.028,2.82881,.01276,4.2433,.00896,1.28384-.00344,2.01614-.57881,2.03315-1.58774,.0168-.99683-.75591-1.6445-1.99088-1.64815-2.05438-.00607-4.10881-.00574-6.16319-.00036-1.45029,.00381-1.99211,.54147-2.00043,2.01511-.01217,2.15538-.00314,4.31089-.0024,6.46634Zm-38.08432,.01703c0,2.22225-.02194,4.44481,.00802,6.66665,.01873,1.38856,.84204,2.11062,2.01199,1.84602,.97163-.21975,1.24081-.95226,1.25719-1.81655,.02488-1.31268,.07735-2.63115-.01532-3.93769-.06931-.97711,.29809-1.20575,1.18572-1.13169,.83555,.06972,1.68341,.03674,2.52332-.0036,.81268-.03904,1.30436-.52835,1.42643-1.31012,.12788-.81896-.19516-1.43116-.99574-1.7701-.42436-.17966-.85807-.1187-1.29066-.15099-.92809-.06928-2.20099,.42619-2.69128-.2074-.46036-.59492-.0885-1.81024-.14634-2.74867-.0377-.61163,.21956-.7203,.76007-.70801,1.41342,.03216,2.82808,.01627,4.24219,.00901,1.1639-.00598,1.91816-.64388,1.92196-1.60665,.00372-.94042-.78491-1.62234-1.91852-1.6274-2.05385-.00917-4.10777-.00505-6.16165-.00196-1.5624,.00235-2.10385,.53675-2.11478,2.13544-.01451,2.12114-.00358,4.24247-.00261,6.36371Z"/><path class="g" d="M15.70234,73.47097c1.37493,.02193,2.74983,.06008,4.1248,.06278,4.26821,.00838,8.53645-.00008,12.80467,.00549,1.30108,.0017,2.02806,.55823,2.06809,1.5495,.03952,.9789-.81762,1.6946-2.06326,1.70219-2.88931,.0176-5.77867,.02684-8.66819,.03944-3.6227-.01216-7.24521-.0242-10.86772-.03663-.30191-.00103-.60644,.01991-.90523-.01188-.91168-.09698-1.55086-.81068-1.53031-1.68191,.01992-.84456,.61063-1.50515,1.51847-1.55784,1.17033-.06792,2.34557-.05134,3.51869-.07116Z"/><path class="e" d="M81.24634,73.52908c.41332-1.18195,.10932-2.40104,.18625-3.60042,1.50194-.50348,1.69735-.71635,1.62868-2.4302-.03526-.88,.19207-1.13175,1.1008-1.1248,5.83082,.04458,11.66225,.04379,17.49324,.01235,2.31362-.01248,4.1161,.79277,5.27713,2.86114,.36495,.65015,.23917,.87365-.52932,.8486-1.34677-.0439-2.69642-.02925-4.0442-.00395-1.16764,.02192-1.70744,.57455-1.72727,1.75026-.01932,1.14562-.02425,2.29248,.00556,3.43773,.0729,2.80147,2.24137,4.91295,5.06273,4.95668q1.83963,.02851,1.83962,1.9216c-.00001,1.48308-.02439,2.96677,.01233,4.44894,.01402,.56584-.13577,.82578-.72445,.71978-.06536-.01176-.13454-.00236-.20195-.00253-.97744-.00252-2.00111,.17717-2.91999-.05604-1.02553-.26027-.98742-1.53368-1.54102-2.29438-2.37865-3.2685-5.55684-4.87615-9.55678-4.50467-3.83098,.35578-6.61811,2.41331-8.33917,5.87404-.08934,.17965-.1652,.36681-.23582,.55479-.10497,.27942-.26336,.44303-.59819,.41144-.43994-.04149-.31507-.36596-.3168-.60267-.01453-1.9885-.01863-3.97708-.02193-5.96565-.00291-1.75272,.00612-3.5055-.00307-5.25818-.00725-1.38306-.47392-1.86703-1.84637-1.95383Z"/><path class="e" d="M25.95854,81.47497c.54674-.01145,.7934-.46513,1.12546-.78029,2.31849-2.20052,5.0308-3.44881,8.25038-3.71105,4.44313-.36191,8.16208,1.0625,11.19818,4.27238,.62385,.65956,1.27184,.92917,2.13157,.79842,.43762,1.36083,.78171,1.62655,2.14561,1.62683,7.79692,.00159,15.59385,.00213,23.39077-.00063,1.28053-.00046,1.68019-.3293,2.02231-1.62022,1.19327-.00042,2.38654-.00084,3.5798-.00127,.01177,1.4818-.00646,2.96475,.04916,4.44492,.02437,.64836-.14864,.85421-.825,.84488-2.83001-.03904-5.66086-.01645-8.49141-.01645-7.784,0-15.56802-.00751-23.35197,.01306-.68555,.00181-1.01932-.17628-1.34365-.84749-1.87754-3.88567-4.99914-6.03605-9.3432-6.02541-4.33572,.01063-7.45269,2.15152-9.3318,6.04279-.28483,.58984-.54138,.85176-1.23948,.83776-2.59362-.05202-5.18913-.03851-7.78343-.00766-.61136,.00727-.84746-.149-.79738-.78788,.05514-.70331,.05952-1.41835-.00106-2.12076-.0571-.66202,.21769-.77701,.80725-.76716,1.95388,.03268,3.90865,.01613,5.86307,.01103,1.5224-.00398,2.11379-.68004,1.9448-2.2058Z"/><path class="b" d="M91.60199,63.11188c-2.5596,0-5.11951-.022-7.67857,.01507-.66121,.00957-.85544-.1703-.84724-.84128,.03622-2.96337,.04202-5.92783-.00291-8.89096-.0112-.7393,.23357-.87278,.91117-.86799,4.2434,.03001,8.48718,.02812,12.73062,.00094,.62393-.004,.83732,.1724,.98476,.7975,.71489,3.03083,1.49128,6.04754,2.28197,9.05977,.16283,.6203-.00685,.75227-.59995,.74697-2.59311-.02319-5.18655-.00998-7.77986-.00998v-.01004Z"/><path class="f" d="M43.45456,90.66716c.01122,3.95251-2.98952,6.98831-6.90999,6.99071-3.87371,.00237-7.00166-3.06528-7.05909-6.923-.05562-3.73638,3.21621-7.03916,6.98475-7.05084,3.84954-.01193,6.97334,3.11133,6.98433,6.98312Zm-7.02699,3.35943c2.01312,.02338,3.38796-1.30894,3.39904-3.2939,.01051-1.88499-1.40864-3.37655-3.23897-3.40425-1.83124-.02771-3.46349,1.54782-3.46766,3.34716-.00428,1.84795,1.4581,3.32951,3.3076,3.35099Z"/><path class="f" d="M93.50645,97.65808c-3.9246-.0162-6.87531-3.05193-6.8461-7.04336,.0281-3.84017,3.11486-7.00668,6.92304-6.90942,4.09109,.10449,6.99459,3.02024,6.98698,6.98422-.00873,4.54898-3.69616,7.13693-7.06392,6.96855Zm.08285-3.63111c1.92813-.00089,3.43547-1.49267,3.40939-3.37417-.02444-1.76286-1.62385-3.32323-3.40779-3.3246-1.77436-.00136-3.39087,1.57225-3.41482,3.32423-.02562,1.87342,1.4936,3.37542,3.41323,3.37454Z"/><path class="h" d="M45.7843,31.80257c-3.38386-1.97516-6.5109-3.8962-9.47099-6.07937-.86529-.63818-1.71757-1.29384-2.47699-2.06181-1.27436-1.2887-1.69685-2.81087-1.11006-4.52362,.54396-1.58773,1.70561-2.57101,3.37501-2.80708,1.87506-.26516,3.38757,.42642,4.36411,2.06275,1.55177,2.6002,2.53134,5.45646,3.55971,8.28546,.59043,1.62425,1.12467,3.26892,1.75922,5.12366Z"/><path class="h" d="M51.45251,31.83187c1.51398-4.46629,2.86022-8.73962,4.91326-12.73807,1.1825-2.303,3.16033-3.28595,5.25609-2.68773,3.00093,.8566,4.13857,4.48439,2.12317,6.87062-.51606,.61102-1.13766,1.14766-1.76952,1.64365-3.25331,2.55378-6.79042,4.67774-10.52301,6.91153Z"/><path class="e" d="M90.9239,49.29732c-2.35829-.00002-4.71695-.02265-7.07464,.01504-.63159,.0101-.82652-.17269-.77862-.79391,.05423-.70331,.0608-1.4183-.00138-2.12028-.05939-.67038,.23135-.76321,.81108-.75974,3.84052,.02302,7.68128,.00119,11.52184,.01995,1.61924,.00791,3.07659,1.22824,3.40791,2.77223,.12783,.59573,.05443,.90324-.71067,.88624-2.3908-.05312-4.78354-.0195-7.17552-.01953Z"/><path class="h" d="M107.53625,75.32301c-.11671,.48875,.31246,1.37623-.20392,1.5825-.65079,.25993-1.51228,.21903-2.25982-.07516-.72218-.28421-1.13824-.79924-1.17262-1.58404-.02052-.46846,.01276-.93962-.01546-1.40731-.02399-.39744,.13028-.52373,.51792-.51138,.73672,.02346,1.47931,.0578,2.21089-.00791,.73416-.06593,1.0622,.13445,.93203,.91573-.05434,.32616-.00902,.66892-.00902,1.08756Z"/><path class="h" d="M37.67554,30.86005l-.11929-.0734c.02134-.02118,.04835-.06348,.06295-.05956,.0439,.01178,.08297,.04159,.12391,.06436l-.06757,.06861Z"/><path class="g" d="M36.58791,57.79166c-.00071-2.12336-.0088-4.24676,.00198-6.37007,.0079-1.55623,.58844-2.15106,2.14679-2.11463,1.6795,.03927,3.37396-.20964,5.03685,.14829,2.34496,.50475,3.88147,1.94444,4.50661,4.2523,.61468,2.26925,.05844,4.30113-1.70405,5.85884-.68218,.60292-.62055,.95588-.14785,1.58138,.6269,.82953,1.17796,1.71861,1.73021,2.60173,.5778,.92398,.39832,1.85771-.41639,2.3797-.73327,.46982-1.70842,.24913-2.28392-.58251-.86034-1.24326-1.67565-2.51761-2.51568-3.77502-.29749-.4453-2.57981-.8223-2.96451-.48548-.20275,.17752-.12085,.44206-.12296,.67053-.00809,.87624,.01504,1.75316-.01056,2.62874-.03328,1.13819-.64153,1.79145-1.61382,1.78447-.95924-.00689-1.61616-.67765-1.63235-1.80387-.03245-2.25771-.00964-4.51622-.01035-6.77439Zm3.26408-2.62818c0,.20146,0,.40293,0,.60439-.00002,2.2321-.00007,2.22417,2.28303,2.21022,.86845-.00531,1.66294-.18658,2.30397-.80883,.87913-.85337,1.06436-2.16343,.4676-3.22786-.70554-1.25849-2.9722-2.03127-4.69769-1.35133-.82515,.32516-.18379,1.37252-.3513,2.0711-.03807,.15876-.0056,.33443-.00562,.50231Z"/><path class="g" d="M55.58631,49.29823c1.07839,.00013,2.15699-.01302,3.23512,.0038,1.10142,.01718,1.7952,.65865,1.79491,1.62206-.0003,.96763-.6865,1.59849-1.79184,1.60886-1.44896,.0136-2.89856,.02332-4.34702-.00679-.52928-.011-.80393,.07549-.76074,.69666,.05364,.77137,.04844,1.5515,.00095,2.32368-.03469,.56404,.19747,.67585,.69931,.65614,.87484-.03436,1.75252-.02802,2.62808-.00445,1.15876,.03119,1.8552,.70164,1.82047,1.70978-.03319,.96322-.69481,1.51552-1.85459,1.53014-.80867,.0102-1.61939,.03551-2.42577-.00851-.61667-.03368-.93323,.09131-.87011,.80766,.06482,.73569,.04722,1.48347,.00368,2.2223-.03229,.54794,.17904,.67952,.69228,.66984,1.48221-.02795,2.96547-.01855,4.44806-.0016,.82031,.00938,1.44,.39345,1.6967,1.18454,.21803,.67191-.02886,1.25333-.55884,1.71501-.35737,.31133-.79736,.35347-1.23413,.35544-2.15673,.0097-4.31386,.02667-6.47019-.00467-1.27003-.01846-1.80665-.60548-1.80885-1.89721-.00752-4.41469-.00792-8.82941-.00035-13.2441,.00238-1.38976,.56325-1.92964,1.9688-1.93756,1.04466-.00588,2.08938-.00115,3.13407-.00102Z"/><path class="g" d="M62.58429,57.78086c-.00037-2.15545-.00941-4.31096,.00277-6.46634,.00832-1.47364,.55014-2.0113,2.00043-2.01511,2.05438-.00539,4.10881-.00571,6.16319,.00036,1.23497,.00365,2.00768,.65132,1.99088,1.64815-.01701,1.00893-.74931,1.58429-2.03315,1.58774-1.41449,.0038-2.82936,.01904-4.2433-.00896-.48274-.00956-.67356,.13716-.62607,.625,.03247,.33361-.0002,.6731,.00714,1.00973,.01385,.63522-.18171,1.41314,.11543,1.86501,.29417,.44737,1.12312,.1012,1.71248,.1719,.91579,.10985,1.61757,.82332,1.61629,1.64532-.00141,.90716-.69399,1.54963-1.71907,1.59468q-1.72646,.07589-1.72646,1.85199,0,1.82894,1.83997,1.82897c1.04404,.00006,2.08856-.01964,3.13199,.00589,1.16029,.02839,1.92162,.69304,1.92614,1.62965,.00455,.94245-.74798,1.61481-1.91292,1.6271-2.12151,.02238-4.24368,.02539-6.36511-.00124-1.34011-.01683-1.86706-.57268-1.8762-1.93144-.01495-2.22271-.00404-4.44559-.00441-6.6684Z"/><path class="g" d="M24.49986,57.7979c-.00048-2.12124-.01141-4.24256,.0031-6.36371,.01093-1.59869,.55239-2.13309,2.11478-2.13544,2.05388-.00309,4.1078-.00721,6.16165,.00196,1.1336,.00506,1.92223,.68698,1.91852,1.6274-.00381,.96277-.75806,1.60068-1.92196,1.60665-1.41411,.00726-2.82877,.02315-4.24219-.00901-.54051-.0123-.79777,.09638-.76007,.70801,.05785,.93842-.31402,2.15375,.14634,2.74867,.49029,.63359,1.7632,.13812,2.69128,.2074,.43259,.03229,.8663-.02867,1.29066,.15099,.80057,.33894,1.12362,.95114,.99574,1.7701-.12207,.78177-.61375,1.27108-1.42643,1.31012-.83992,.04034-1.68778,.07332-2.52332,.0036-.88763-.07406-1.25503,.15458-1.18572,1.13169,.09267,1.30654,.04019,2.625,.01532,3.93769-.01638,.86429-.28555,1.5968-1.25719,1.81655-1.16995,.26461-1.99326-.45745-2.01199-1.84602-.02997-2.22185-.00802-4.4444-.0085-6.66665Z"/><path class="g" d="M76.22283,82.0604c-.34213,1.29092-.74178,1.61977-2.02231,1.62022-7.79693,.00276-15.59385,.00222-23.39077,.00063-1.3639-.00028-1.70799-.266-2.14561-1.62683,.44709-1.36368,.77203-1.60971,2.15298-1.60989,7.79559-.00103,15.59118-.00165,23.38677,.00067,1.28306,.00038,1.67961,.32492,2.01894,1.61519Z"/><path class="g" d="M36.42757,94.02659c-1.8495-.02148-3.31188-1.50304-3.3076-3.35099,.00417-1.79935,1.63642-3.37487,3.46766-3.34716,1.83034,.0277,3.24948,1.51926,3.23897,3.40425-.01107,1.98496-1.38591,3.31727-3.39904,3.2939Z"/><path class="g" d="M93.5893,94.02697c-1.91962,.00088-3.43884-1.50112-3.41323-3.37454,.02396-1.75197,1.64046-3.32558,3.41482-3.32423,1.78394,.00137,3.38336,1.56174,3.40779,3.3246,.02608,1.8815-1.48127,3.37328-3.40939,3.37417Z"/><path class="d" d="M39.85199,55.16348c0-.16789-.03246-.34355,.00561-.50231,.1675-.69858-.47385-1.74595,.3513-2.0711,1.72549-.67994,3.99215,.09284,4.69769,1.35133,.59675,1.06443,.41152,2.3745-.4676,3.22786-.64104,.62225-1.43553,.80352-2.30397,.80883-2.2831,.01395-2.28305,.02188-2.28303-2.21022v-.60439Z"/></g></svg>